<svg width="182" height="60" viewBox="0 0 182 60" fill="none" xmlns="http://www.w3.org/2000/svg">
<g clip-path="url(#clip0_228_812)">
<path d="M23.1581 0.00683594H24.7677C30.3559 0.130207 35.8531 2.41258 39.8013 6.45299C38.3435 7.96429 36.8553 9.41391 35.4279 10.9252C33.2108 8.88958 30.5382 7.31659 27.6226 6.76142C23.3099 5.83614 18.6632 6.66889 15.049 9.16716C11.1008 11.7888 8.42821 16.2302 7.85116 20.98C7.21338 25.6681 8.51932 30.603 11.526 34.2424C14.4113 37.7893 18.815 40.01 23.3707 40.1642C27.6226 40.411 32.0567 39.0847 35.1545 36.0621C37.5842 33.934 38.7079 30.6955 39.0724 27.5495C34.0308 27.5495 28.9893 27.5804 23.9477 27.5495V21.1959H45.1769C46.2703 28.0121 44.691 35.692 39.5887 40.5652C36.1871 44.0196 31.4797 46.0552 26.6811 46.4562C22.0343 46.9188 17.2357 46.0244 13.1053 43.742C8.15487 41.0587 4.20666 36.5248 2.26293 31.189C0.440683 26.285 0.410312 20.7332 2.11108 15.7984C3.65999 11.2953 6.63633 7.31659 10.4631 4.54074C14.1379 1.79572 18.6024 0.284422 23.1581 0.00683594Z" fill="#3865F4"/>
<path d="M144.945 1.60913H151.444V45.6528C149.288 45.6528 147.101 45.6836 144.945 45.6219C144.975 30.9715 144.945 16.2903 144.945 1.60913Z" fill="#3865F4"/>
<path d="M59.6336 16.8764C63.6425 16.1053 67.9855 16.9689 71.296 19.4055C74.3027 21.5645 76.3983 24.9572 77.0361 28.6583C77.8561 32.9455 76.8235 37.6336 74.0901 41.0263C71.1441 44.82 66.3152 46.8556 61.6077 46.5472C57.295 46.3005 53.1038 44.1106 50.5527 40.5328C47.6675 36.585 46.9689 31.1566 48.5482 26.5302C50.1275 21.5645 54.592 17.7708 59.6336 16.8764ZM60.5447 22.7365C58.9047 23.1683 57.3861 24.1245 56.2928 25.4815C53.3468 29.0593 53.529 34.8886 56.7787 38.2196C58.6313 40.1319 61.4254 41.0263 64.007 40.502C66.4063 40.0702 68.5019 38.4355 69.6559 36.2765C71.6604 32.6062 71.0834 27.548 68.0159 24.6796C66.0418 22.8291 63.1566 22.058 60.5447 22.7365Z" fill="#3865F4"/>
<path d="M91.8266 16.8765C96.4126 15.982 101.424 17.2774 104.856 20.5468C110.444 25.6358 111.051 35.1663 106.283 41.0264C103.398 44.7276 98.7208 46.7632 94.1044 46.5473C89.7007 46.4239 85.3577 44.2032 82.7458 40.5329C79.7998 36.4925 79.162 30.9408 80.8324 26.2218C82.5028 21.4104 86.8762 17.7401 91.8266 16.8765ZM92.7378 22.7366C91.0977 23.1684 89.5792 24.1245 88.4859 25.4508C85.5703 28.9669 85.6917 34.7036 88.8199 38.0655C90.6726 40.0703 93.5578 41.0573 96.2304 40.5021C98.5993 40.0395 100.725 38.4356 101.879 36.2766C103.853 32.5755 103.276 27.5173 100.179 24.6489C98.2045 22.7983 95.3193 22.0581 92.7378 22.7366Z" fill="#3865F4"/>
<path d="M119.13 18.6653C122.623 16.4446 127.269 15.8278 131.035 17.74C132.22 18.2644 133.192 19.1588 134.133 20.0533C134.164 19.2205 134.133 18.3569 134.164 17.4933C136.198 17.5241 138.233 17.4933 140.298 17.5241V44.7276C140.268 48.8297 139.235 53.1785 136.32 56.1703C133.131 59.4705 128.241 60.4883 123.837 59.8097C119.13 59.1003 115.03 55.6151 113.208 51.2046C115.03 50.3101 116.943 49.6007 118.826 48.768C119.889 51.2971 122.046 53.4561 124.749 53.9496C127.452 54.4431 130.58 53.7645 132.341 51.4821C134.224 49.1381 134.224 45.9304 134.133 43.062C132.736 44.45 131.126 45.6837 129.183 46.1463C124.961 47.3492 120.314 45.8687 117.065 42.9695C113.785 40.0703 111.841 35.5981 112.023 31.1567C112.114 26.1293 114.908 21.287 119.13 18.6653ZM125.417 22.6132C123.564 22.9216 121.833 23.9703 120.649 25.4199C117.794 28.8743 117.794 34.3952 120.679 37.7879C122.319 39.7927 124.961 40.903 127.512 40.6255C129.912 40.3787 132.129 38.8366 133.313 36.7084C135.318 33.0998 134.984 28.1958 132.281 25.0498C130.61 23.1067 127.938 22.1506 125.417 22.6132Z" fill="#3865F4"/>
<path d="M159.25 20.2383C162.894 16.7839 168.513 15.6118 173.19 17.4316C177.624 19.1279 180.449 23.4151 181.876 27.8256C175.286 30.6015 168.726 33.3465 162.135 36.1224C163.046 37.8804 164.443 39.4843 166.326 40.132C168.969 41.0881 172.127 40.7488 174.344 38.9599C175.225 38.2814 175.923 37.3869 176.592 36.5233C178.262 37.6645 179.932 38.7749 181.603 39.9161C179.234 43.5247 175.255 46.0538 170.973 46.4548C166.235 47.0408 161.194 45.1902 158.126 41.4274C153.085 35.5055 153.571 25.5741 159.25 20.2383ZM162.5 25.9442C161.467 27.4555 161.042 29.3061 161.072 31.1258C165.476 29.2753 169.88 27.4247 174.283 25.5433C173.555 23.8161 171.793 22.7674 170.001 22.4898C167.116 21.9655 164.109 23.5385 162.5 25.9442Z" fill="#3865F4"/>
</g>
<defs>
<clipPath id="clip0_228_812">
<rect width="181.01" height="60" fill="white" transform="translate(0.865967)"/>
</clipPath>
</defs>
</svg>
