<svg width="246" height="58" viewBox="0 0 246 58" fill="none" xmlns="http://www.w3.org/2000/svg">
<path d="M92.5268 20.4404H87.1973V46.0239H92.5268V35.6522H104.217V46.0239H109.375V20.4404H104.217V30.8121H92.5268V20.4404ZM133.444 35.1336C133.444 39.2823 131.381 41.5295 127.599 41.5295C123.816 41.5295 121.753 39.2823 121.753 34.9608V20.4404H116.596V35.1336C116.596 42.3938 120.55 46.5425 127.599 46.5425C134.647 46.5425 138.602 42.3938 138.602 34.9608V20.4404H133.444V35.1336ZM183.301 20.4404L177.456 38.0723L171.782 20.4404H166.281L175.221 46.0239H179.519L185.364 29.2564L191.038 46.0239H195.507L204.275 20.4404H198.946L193.273 38.0723L187.427 20.4404H183.301ZM223.015 30.2935H213.559V25.1077H227.313V20.4404H208.402V46.0239H227.829V41.3566H213.559V34.9608H223.015V30.2935ZM234.018 20.4404H239.175V46.0239H234.018V20.4404ZM160.436 40.6652L162.671 46.0239H168.172L156.997 20.4404L156.825 20.2676H152.355L141.18 46.0239H146.51L148.745 41.0109L148.917 40.6652H160.436ZM154.59 26.8363L158.201 35.4794L158.373 35.9979H150.464L150.636 35.4794L154.59 26.8363Z" fill="#3865F4"/>
<path d="M36.3086 43.4309C36.3086 43.4309 36.4805 43.2581 36.3086 43.2581C28.4003 25.972 17.5692 12.6616 17.5692 12.6616C17.5692 12.6616 11.7239 18.1932 12.0678 23.8976C12.2397 28.2192 15.5062 30.6392 15.5062 30.6392C20.6638 35.6522 33.0421 42.048 35.9648 43.4309H36.3086ZM34.2456 47.7525C34.2456 47.5796 33.9017 47.5796 33.9017 47.5796L13.2712 48.271C15.5062 52.2469 19.2884 55.3584 23.2426 54.4941C25.9934 53.8026 32.1825 49.4811 34.0737 48.0982C34.4175 47.7525 34.2456 47.7525 34.2456 47.7525ZM34.5894 45.851C34.7613 45.6781 34.5894 45.5053 34.5894 45.5053C25.4776 39.2823 7.94165 29.9478 7.94165 29.9478C6.39436 34.9607 8.45741 38.9365 8.45741 38.9365C10.6924 43.7767 14.9904 45.1595 14.9904 45.1595C16.8815 46.0239 18.9446 46.0239 18.9446 46.0239H34.4175C34.5894 46.0239 34.5894 45.851 34.5894 45.851ZM35.9648 3.67286C35.1052 3.67286 32.6983 4.36431 32.6983 4.36431C27.1968 5.7472 25.9934 10.7602 25.9934 10.7602C24.9618 13.8717 25.9934 17.3289 25.9934 17.3289C27.8845 25.4534 36.8244 38.9365 38.7155 41.7023L38.8874 41.8752C39.0594 41.8752 39.0594 41.7023 39.0594 41.7023C42.1539 11.4516 35.9648 3.67286 35.9648 3.67286ZM42.8416 41.7023C43.0135 41.7023 43.1855 41.5295 43.1855 41.5295C45.2485 38.5908 54.0165 25.2805 55.9076 17.156C55.9076 17.156 56.9392 13.1802 55.9076 10.5873C55.9076 10.5873 54.5323 5.57433 49.0308 4.19144C49.0308 4.19144 47.4835 3.84572 45.7643 3.5C45.7643 3.5 39.5751 11.4516 42.6697 41.3566C42.6697 41.7023 42.8416 41.7023 42.8416 41.7023ZM47.6554 47.5796C47.6554 47.5796 47.4835 47.5796 47.4835 47.7525V48.0982C49.5465 49.4811 55.3919 53.8026 58.3145 54.4941C58.3145 54.4941 63.6441 56.3955 68.2859 48.271L47.6554 47.5796ZM73.9593 29.7749C73.9593 29.7749 56.4234 39.2823 47.3116 45.5053C47.3116 45.5053 47.1397 45.6781 47.1397 45.851C47.1397 45.851 47.1397 46.0239 47.3116 46.0239H63.1283C63.1283 46.0239 64.6756 46.0239 66.7387 45.1595C66.7387 45.1595 71.0367 43.7767 73.4436 38.7637C73.4436 38.5908 75.5066 34.615 73.9593 29.7749ZM45.5924 43.4309C45.5924 43.4309 45.7643 43.6038 45.9362 43.4309C48.8589 41.8752 61.2372 35.6522 66.3948 30.6392C66.3948 30.6392 69.6613 28.0463 69.8332 23.8976C70.1771 18.0203 64.3318 12.6616 64.3318 12.6616C64.3318 12.6616 53.5007 25.6262 45.5924 43.0852C45.5924 43.0852 45.4204 43.2581 45.5924 43.4309Z" fill="#3865F4"/>
</svg>
