<svg width="258" height="56" viewBox="0 0 258 56" fill="none" xmlns="http://www.w3.org/2000/svg">
<g clip-path="url(#clip0_228_828)">
<path d="M257.472 25.3821V20.8538H251.868V13.8139L251.679 13.8722L246.416 15.4882L246.312 15.5199V20.854H238.004V17.8824C238.004 16.4988 238.313 15.4399 238.92 14.7337C239.524 14.0361 240.387 13.6814 241.488 13.6814C242.279 13.6814 243.098 13.8684 243.923 14.2373L244.13 14.33V9.561L244.032 9.52513C243.263 9.24765 242.217 9.10791 240.92 9.10791C239.285 9.10791 237.8 9.46485 236.505 10.1723C235.209 10.8806 234.19 11.8919 233.476 13.1777C232.764 14.462 232.403 15.9453 232.403 17.5868V20.8538H228.501V25.3821H232.403V44.4593H238.004V25.3821H246.312V37.5053C246.312 42.4983 248.659 45.0285 253.287 45.0285C254.048 45.0285 254.849 44.939 255.666 44.7639C256.498 44.5841 257.065 44.4045 257.398 44.2127L257.472 44.1689V39.5987L257.244 39.7499C256.94 39.9531 256.562 40.1192 256.118 40.2428C255.672 40.3686 255.3 40.4316 255.011 40.4316C253.927 40.4316 253.125 40.1384 252.627 39.5598C252.124 38.9759 251.868 37.9549 251.868 36.5267V25.3821H257.472ZM215.991 40.4323C213.958 40.4323 212.355 39.7558 211.226 38.4232C210.089 37.0839 209.513 35.1744 209.513 32.7483C209.513 30.2453 210.089 28.2862 211.226 26.9232C212.356 25.5692 213.944 24.882 215.946 24.882C217.888 24.882 219.434 25.5383 220.542 26.8338C221.655 28.136 222.22 30.0794 222.22 32.6116C222.22 35.1749 221.689 37.1439 220.641 38.4611C219.601 39.7683 218.037 40.4323 215.991 40.4323ZM216.24 20.2851C212.361 20.2851 209.281 21.4257 207.084 23.6751C204.889 25.9249 203.776 29.0382 203.776 32.9294C203.776 36.6253 204.862 39.5982 207.005 41.764C209.148 43.9305 212.065 45.028 215.673 45.028C219.433 45.028 222.453 43.8715 224.649 41.5908C226.844 39.3127 227.956 36.2288 227.956 32.4285C227.956 28.6748 226.913 25.6798 224.853 23.5284C222.793 21.3761 219.894 20.2851 216.24 20.2851ZM194.744 20.2851C192.105 20.2851 189.923 20.9624 188.256 22.2977C186.578 23.641 185.727 25.4028 185.727 27.5347C185.727 28.6429 185.911 29.6273 186.272 30.4622C186.636 31.2999 187.199 32.0374 187.946 32.6564C188.688 33.2704 189.833 33.9135 191.351 34.5679C192.627 35.0947 193.578 35.5403 194.183 35.8915C194.774 36.2358 195.193 36.5817 195.43 36.9188C195.66 37.2485 195.776 37.6999 195.776 38.2568C195.776 39.8428 194.593 40.6144 192.158 40.6144C191.254 40.6144 190.224 40.4251 189.095 40.052C187.975 39.6845 186.917 39.1463 185.959 38.4564L185.727 38.289V43.7008L185.812 43.7407C186.605 44.1078 187.604 44.4175 188.782 44.6611C189.957 44.9049 191.025 45.029 191.953 45.029C194.817 45.029 197.122 44.3485 198.805 43.0051C200.498 41.6526 201.356 39.8492 201.356 37.6436C201.356 36.0524 200.894 34.6879 199.983 33.5875C199.079 32.496 197.51 31.4939 195.321 30.6082C193.577 29.9058 192.459 29.3227 191.998 28.875C191.554 28.4426 191.329 27.8311 191.329 27.0567C191.329 26.3702 191.607 25.8203 192.179 25.3749C192.755 24.9273 193.557 24.6996 194.563 24.6996C195.496 24.6996 196.451 24.8476 197.4 25.1375C198.349 25.4275 199.183 25.8158 199.879 26.2908L200.108 26.4477V21.3141L200.02 21.2762C199.378 21 198.531 20.7636 197.503 20.5718C196.48 20.3812 195.551 20.2851 194.744 20.2851ZM171.124 40.4323C169.091 40.4323 167.488 39.7558 166.359 38.4232C165.222 37.0839 164.647 35.1749 164.647 32.7483C164.647 30.2453 165.222 28.2862 166.36 26.9232C167.489 25.5692 169.077 24.882 171.079 24.882C173.021 24.882 174.567 25.5383 175.675 26.8338C176.788 28.136 177.353 30.0794 177.353 32.6116C177.353 35.1749 176.821 37.1439 175.774 38.4611C174.734 39.7683 173.17 40.4323 171.124 40.4323ZM171.374 20.2851C167.494 20.2851 164.413 21.4257 162.217 23.6751C160.022 25.9249 158.908 29.0382 158.908 32.9294C158.908 36.6268 159.995 39.5982 162.139 41.764C164.282 43.9305 167.198 45.028 170.806 45.028C174.566 45.028 177.586 43.8715 179.782 41.5908C181.977 39.3127 183.09 36.2288 183.09 32.4285C183.09 28.6748 182.046 25.6798 179.986 23.5284C177.925 21.3761 175.027 20.2851 171.374 20.2851ZM150.405 24.9417V20.8538H144.872V44.4588H150.405V32.3839C150.405 30.3307 150.869 28.6439 151.785 27.3698C152.688 26.111 153.893 25.473 155.363 25.473C155.862 25.473 156.421 25.5555 157.027 25.7186C157.627 25.8808 158.061 26.0569 158.317 26.2422L158.55 26.4113V20.8134L158.46 20.7748C157.945 20.5551 157.216 20.4443 156.293 20.4443C154.903 20.4443 153.659 20.8926 152.593 21.7754C151.657 22.5513 150.981 23.6151 150.464 24.9417H150.405ZM134.963 20.2851C132.424 20.2851 130.16 20.8313 128.234 21.9081C126.304 22.9874 124.811 24.5283 123.796 26.4876C122.785 28.4421 122.272 30.7253 122.272 33.2714C122.272 35.5017 122.769 37.5484 123.753 39.3523C124.737 41.1592 126.13 42.5727 127.894 43.5531C129.654 44.5323 131.69 45.0287 133.943 45.0287C136.573 45.0287 138.818 44.5011 140.618 43.4607L140.691 43.4189V38.3318L140.458 38.5022C139.643 39.0982 138.731 39.574 137.751 39.9167C136.773 40.2592 135.881 40.4323 135.099 40.4323C132.928 40.4323 131.185 39.7506 129.92 38.4065C128.652 37.0607 128.009 35.1709 128.009 32.7929C128.009 30.3999 128.68 28.4616 130.001 27.0313C131.318 25.6053 133.065 24.882 135.191 24.882C137.009 24.882 138.782 25.4999 140.459 26.7205L140.691 26.8896V21.5295L140.616 21.4872C139.985 21.1327 139.124 20.8401 138.056 20.6181C136.992 20.3967 135.951 20.2851 134.963 20.2851ZM118.461 20.854H112.927V44.4588H118.461V20.854ZM115.751 10.7982C114.84 10.7982 114.046 11.1093 113.393 11.7258C112.738 12.344 112.405 13.1224 112.405 14.041C112.405 14.9452 112.734 15.7094 113.383 16.3112C114.028 16.9112 114.825 17.2154 115.751 17.2154C116.677 17.2154 117.477 16.9112 118.129 16.3122C118.786 15.7094 119.119 14.9455 119.119 14.041C119.119 13.1545 118.795 12.3841 118.156 11.7507C117.518 11.1185 116.709 10.7982 115.751 10.7982ZM101.945 19.1124V44.4588H107.592V11.5208H99.776L89.8417 35.9862L80.2011 11.5208H72.0671V44.4586H77.3738V19.1099H77.556L87.7363 44.4588H91.7411L101.762 19.1124H101.945Z" fill="#3865F4"/>
<path d="M26.9056 26.6352H0.875244V0.51416H26.9056V26.6352Z" fill="#3865F4"/>
<path d="M55.6461 26.6352H29.6162V0.51416H55.6461V26.6352Z" fill="#3865F4"/>
<path d="M26.9049 55.4858H0.875244V29.365H26.9049V55.4858Z" fill="#3865F4"/>
<path d="M55.6461 55.4858H29.6162V29.365H55.6461V55.4858Z" fill="#3865F4"/>
</g>
<defs>
<clipPath id="clip0_228_828">
<rect width="256.597" height="55" fill="white" transform="translate(0.875244 0.5)"/>
</clipPath>
</defs>
</svg>
