<svg width="184" height="52" viewBox="0 0 184 52" fill="none" xmlns="http://www.w3.org/2000/svg">
<g clip-path="url(#clip0_228_819)">
<path d="M0.875977 12.9153H11.7632L18.1027 29.2142L24.5245 12.9153H35.1251L19.163 51.5H8.49532L12.8647 41.2757L0.875977 12.9153Z" fill="#3865F4"/>
<path d="M46.168 12.2664C37.9879 12.2664 32.8167 19.6388 32.8167 26.9805C32.8167 35.2421 38.4863 41.7921 46.0128 41.7921C51.6273 41.7921 53.7443 38.3545 53.7443 38.3545V41.0323H63.24V12.9154H53.7443V15.4715C53.7443 15.4715 51.3824 12.2664 46.168 12.2664ZM48.1878 21.302C51.9622 21.302 53.9099 24.3033 53.9099 27.0114C53.9099 29.9275 51.8232 32.7892 48.1878 32.7892C45.1748 32.7892 42.452 30.3148 42.452 27.1355C42.452 23.9112 44.6421 21.302 48.1878 21.302Z" fill="#3865F4"/>
<path d="M66.5103 41.0322V0.5H76.4423V15.5689C76.4423 15.5689 78.8013 12.2699 83.7421 12.2699C89.7858 12.2699 93.3267 16.7951 93.3267 23.2613V41.0322H83.4673V25.6957C83.4673 23.5074 82.4301 21.3934 80.0805 21.3934C77.6887 21.3934 76.4423 23.5394 76.4423 25.6957V41.0322H66.5103Z" fill="#3865F4"/>
<path d="M110.26 12.2698C100.893 12.2698 95.3147 19.4281 95.3147 27.0976C95.3147 35.8255 102.068 41.7922 110.296 41.7922C118.27 41.7922 125.248 36.0963 125.248 27.244C125.248 17.5579 117.942 12.2698 110.26 12.2698ZM110.35 21.3849C113.659 21.3849 115.949 24.1545 115.949 27.108C115.949 29.6271 113.815 32.7342 110.35 32.7342C107.175 32.7342 104.792 30.1747 104.792 27.0804C104.792 24.0997 106.773 21.3849 110.35 21.3849Z" fill="#3865F4"/>
<path d="M141.795 12.2698C132.427 12.2698 126.849 19.4281 126.849 27.0976C126.849 35.8255 133.603 41.7922 141.83 41.7922C149.805 41.7922 156.783 36.0963 156.783 27.244C156.783 17.5579 149.476 12.2698 141.795 12.2698ZM141.884 21.3849C145.193 21.3849 147.483 24.1545 147.483 27.108C147.483 29.6271 145.349 32.7342 141.884 32.7342C138.709 32.7342 136.326 30.1747 136.326 27.0804C136.326 24.0997 138.307 21.3849 141.884 21.3849Z" fill="#3865F4"/>
<path d="M164.62 41.6292C168.262 41.6292 171.215 38.6618 171.215 35.0015C171.215 31.3411 168.262 28.3738 164.62 28.3738C160.977 28.3738 158.024 31.3411 158.024 35.0015C158.024 38.6618 160.977 41.6292 164.62 41.6292Z" fill="#3865F4"/>
<path d="M173.382 25.9391H161.509L172.046 0.5H183.875L173.382 25.9391Z" fill="#3865F4"/>
</g>
<defs>
<clipPath id="clip0_228_819">
<rect width="182.999" height="51" fill="white" transform="translate(0.875977 0.5)"/>
</clipPath>
</defs>
</svg>
